<?xml version="1.0" standalone="no"?>
<!DOCTYPE svg PUBLIC "-//W3C//DTD SVG 20010904//EN"
 "http://www.w3.org/TR/2001/REC-SVG-20010904/DTD/svg10.dtd">
<svg version="1.0" xmlns="http://www.w3.org/2000/svg"
 width="239.000000pt" height="239.000000pt" viewBox="0 0 239.000000 239.000000"
 preserveAspectRatio="xMidYMid meet">
<metadata>
Created by potrace 1.11, written by Peter Selinger 2001-2013
</metadata>
<g transform="translate(0.000000,239.000000) scale(0.100000,-0.100000)"
fill="#000000" stroke="none">
<path d="M1790 2317 c-16 -18 -37 -47 -45 -64 -9 -18 -20 -33 -24 -33 -5 0
-43 -46 -84 -102 -42 -57 -83 -111 -92 -120 -17 -20 -21 -43 -5 -33 6 3 10 2
10 -4 0 -6 -12 -18 -27 -28 -39 -24 -73 -61 -73 -79 0 -7 -3 -14 -8 -14 -10 0
-58 -79 -54 -92 1 -5 -12 -24 -31 -41 -18 -18 -44 -48 -58 -67 -53 -77 -344
-350 -373 -350 -24 0 -13 116 20 208 15 40 15 45 -2 63 -23 26 -48 24 -68 -6
-9 -14 -13 -25 -9 -25 5 0 3 -4 -3 -8 -6 -4 -25 -29 -42 -55 -49 -78 -201
-259 -248 -296 -24 -19 -25 -22 -12 -48 25 -52 52 -40 118 48 14 18 45 56 70
84 25 27 54 63 66 79 l21 29 7 -52 c8 -60 40 -101 79 -101 25 0 103 45 126 73
29 36 30 15 1 -27 -16 -25 -30 -49 -30 -55 0 -5 -6 -14 -12 -18 -7 -4 -27 -29
-45 -55 -29 -43 -31 -48 -15 -57 15 -9 15 -10 -4 -11 -19 0 -31 -17 -38 -52 0
-5 -4 -7 -8 -5 -9 3 -44 -43 -52 -70 -4 -13 -12 -23 -18 -23 -5 0 -8 -6 -5
-12 2 -7 -3 -18 -10 -23 -8 -6 -15 -17 -16 -25 -2 -8 -11 -25 -22 -38 -11 -12
-21 -35 -21 -50 -3 -44 -4 -48 -12 -34 -20 30 -183 -368 -206 -503 -17 -99
-17 -121 4 -140 30 -27 48 -12 75 60 40 107 40 109 16 102 -11 -3 -21 -4 -21
-2 0 14 59 187 90 265 40 101 140 297 199 392 20 31 58 92 84 135 27 43 75
119 107 168 33 50 91 140 129 200 61 97 103 151 210 270 88 99 204 259 346
480 32 50 67 100 77 112 25 27 20 63 -9 74 -18 7 -29 2 -53 -24z m-307 -447
c-3 -11 -9 -20 -15 -20 -5 0 -4 9 2 20 6 11 12 20 14 20 2 0 2 -9 -1 -20z
m-77 -108 c-18 -16 -18 -16 -6 6 6 13 14 21 18 18 3 -4 -2 -14 -12 -24z"/>
</g>
</svg>
